<mxfile host="app.diagrams.net" modified="2024-02-06T05:54:30.460Z" agent="Mozilla/5.0 (Windows NT 10.0; Win64; x64) AppleWebKit/537.36 (KHTML, like Gecko) Chrome/121.0.0.0 Safari/537.36" version="23.1.1" etag="K7jUtoUj_bXmTSHUKjpq" type="github">
  <diagram name="Halaman-1" id="o8QIf53qEHn1DH495V9e">
    <mxGraphModel>
      <root>
        <mxCell id="0" />
        <mxCell id="1" parent="0" />
      </root>
    </mxGraphModel>
  </diagram>
</mxfile>
